<?xml version="1.0" encoding="utf-8"?>
<!-- Generator: Adobe Illustrator 24.0.2, SVG Export Plug-In . SVG Version: 6.00 Build 0)  -->
<svg version="1.1" id="Calque_1" xmlns="http://www.w3.org/2000/svg" xmlns:xlink="http://www.w3.org/1999/xlink" x="0px" y="0px"
	 viewBox="0 0 283.5 283.5" style="enable-background:new 0 0 283.5 283.5;" xml:space="preserve">
<style type="text/css">
	.st0{fill:#534741;}
	.st1{fill:#FF0000;}
	.st2{fill:#F15A24;}
	.st3{fill:#FCEE21;}
</style>
<g>
	<g>
		<path class="st0" d="M44.1,123.5c-5.2-3.2-22-26.4-32.7-2.4c-5.5,12.4,7.6,26.2,12.8,32.5C20.5,154.1,1,152.3,0,177.6
			c0.4,13.3,17.7,3.5,24.4,13.2c-8.3-0.7-16.9,11.5-13.2,21.6c3.1,8.2,12.9,20.9,19.7,20.8c6-0.1,9.2-11.9,15.2-12
			c1.2,0-7.6,15.6,13.5,33.8c24.9,21.5,25.4-19.5,37.7-22.1c-0.8,14.5,10.9,25.7,21.5,24.6s19.6-10.8,27.1-21
			c-2.1,10.8,3.2,23.2,11.1,26c10,3.6,19.6-6.5,27.3-15.9c1.8,3.9,5.8,4.4,9.2,4.3c8.6-0.3,17.6-2.1,24.3-9.6
			c10.3-11.6,11.4-32.3,11.7-50.6c5.5,9.4,17.1,7.3,22.9-1.8c20.6-32.4-9.1-9,0.8-28.8c-0.9,5.2,5.2,3.9,8.9,1.9
			c3.6-2,17.7-2.4,19.5-7.2c4.3-11.7-10.5-45.8-10.6-48.1c-0.2-6.6,7.3-7.1,10.7-11.7c3.6-4.8,1.7-13.9-2.5-17.9s-9.5-4.2-14.6-4.4
			c-5.4-0.2-10.8-0.3-16.2-0.5c4.4-3.4,8.8-6.9,13.2-10.3c1.3-1,2.7-2.3,2.8-4.3c0.1-2.2-1.5-3.9-2.9-4.9
			c-14.3-10.6-32.7-9.7-46.4,2.4c2.7-5.6,0.6-13.7-3.4-17.6s-9.2-4.5-14.1-4.2c-11.7,0.6-23.3,5.5-33.3,13.9
			c3.4-8.8-0.9-20.5-7.5-24.6c-6.6-4.2-14.4-2.5-21.2,1.1c-6.8,3.6-13.1,9-18.4,15.9c-5-8.8-13.6-13.5-21.7-12S80,36.8,76.8,47.1
			c-2.2,7.2-2.7,15.9-7.2,20.8C68.2,59.7,62.1,54,56,53.2c-6.2-0.9-12.3,2.2-17.7,6.4c-2.9,2.2-5.8,5-7.1,9.2
			c-1.3,4.5-0.5,9.6,0.5,14.2C34.9,98.5,44.1,123.5,44.1,123.5z"/>
	</g>
	<g>
		<path class="st1" d="M162.7,39c48.5,40.8-1.6,42.3,64.2,33.4c19,43.8,4.1,63,47.5,56.3c-21.8,29.9-38.7,71,0,81.4
			c-10.4-1.2-80.1-24.1-68.3,33.4c-34.5-24.5-61-63.1-101.7,12c16.2-62.1,4.9-73.3-81.9-36.5c54.8-48,44.8-103.7-19.8-110.1
			c49.3,0,106.4-15.1,52.2-62.1C96.5,73.2,166.4,69.5,162.7,39"/>
	</g>
	<g>
		<path class="st2" d="M188,213.3c-38.1-29.9-57.5-16.4-68.8-5.6c-15.7-33-23.1-34.3-56.1-28.1c15.9-23.4,8.9-57.9-21-64.9
			c7.9,0.6,51.5,1.5,41.1-42.1c27,17.8,58.3,11.8,83.8-16.8c-10.8,23.4,33.7,40.3,52,36.8c-15.9,18.2-14.7,41.1,34.8,44.3
			c-37.6,1.3-55.7,26.6-13.1,61.1C208.1,178.9,184.3,190.1,188,213.3"/>
	</g>
	<g>
		<path class="st3" d="M171.4,186c-22.7-17.9-34.3-9.8-41-3.3c-9.3-19.7-13.8-20.5-33.5-16.8c9.5-14,5.3-34.6-12.5-38.7
			c4.7,0.4,30.8,0.9,24.5-25.1c16.1,10.6,34.8,7.1,50-10c-6.4,14,20.1,24.1,31,21.9c-9.5,10.9-8.8,24.5,20.8,26.4
			c-22.5,0.8-33.2,15.9-7.8,36.5C183.4,165.5,169.3,172.2,171.4,186"/>
	</g>
</g>
</svg>
