<?xml version="1.0" encoding="utf-8"?>
<!-- Generator: Adobe Illustrator 24.0.2, SVG Export Plug-In . SVG Version: 6.00 Build 0)  -->
<svg version="1.1" id="Calque_1" xmlns="http://www.w3.org/2000/svg" xmlns:xlink="http://www.w3.org/1999/xlink" x="0px" y="0px"
	 viewBox="0 0 283.5 283.5" style="enable-background:new 0 0 283.5 283.5;" xml:space="preserve">
<style type="text/css">
	.st0{fill:#8CC63F;}
	.st1{fill:#0071BC;}
	.st2{fill:#F7931E;}
	.st3{fill:#C69C6D;}
	.st4{fill:#754C24;}
	.st5{fill:#534741;}
	.st6{fill:#FFFFFF;}
</style>
<rect class="st0" width="283.5" height="283.5"/>
<g>
	<path class="st1" d="M-30.6,177.4C3.9,206,51.8,212.5,96.5,209.8c16.4-1,32.8-3.1,48.9-6.2c18.9-3.7,37.5-8.8,56.7-10.7
		c49.1-4.9,97.4,11.6,144,27.8l-21.8-30.4c-32.6-15.8-68.5-24.8-104.6-26.4c-54.1-2.4-107.7,11.6-161.9,12.4
		c-24.9,0.4-51.6-2.8-70.6-18.8L-30.6,177.4z"/>
</g>
<rect x="195.1" y="157.5" class="st2" width="28.4" height="41.6"/>
<rect x="195.1" y="159.7" width="28.4" height="0.3"/>
<rect x="195.1" y="164.7" width="28.4" height="0.3"/>
<rect x="195.1" y="169.8" width="28.4" height="0.3"/>
<rect x="195.1" y="174.8" width="28.4" height="0.3"/>
<rect x="195.1" y="179.8" width="28.4" height="0.3"/>
<rect x="195.1" y="184.8" width="28.4" height="0.3"/>
<rect x="195.1" y="189.8" width="28.4" height="0.3"/>
<rect x="195.1" y="194.9" width="28.4" height="0.3"/>
<path class="st3" d="M26,93.3c11.4-2.3,7.3-12.9,7.3-12.9c5.7,3.7,10.1,5.5,14.4-3c0,0-0.4,7.7,8.6,8c0,0-4,7.9,1.6,11.4
	c0,0-10.1-4-10.7,5.5c0,0-10.7-6-15-0.7C32.2,101.6,40.1,91.5,26,93.3z"/>
<path class="st4" d="M52.9,89.7c-6.6,1.3-4.2,7.5-4.2,7.5c-3.3-2.1-5.8-3.2-8.3,1.8c0,0,0.2-4.4-5-4.6c0,0,2.3-4.6-0.9-6.6
	c0,0,5.8,2.3,6.2-3.2c0,0,6.2,3.4,8.7,0.4C49.3,84.9,44.7,90.8,52.9,89.7z"/>
<path class="st3" d="M113.1,57c11.4-2.3,7.3-12.9,7.3-12.9c5.7,3.7,10.1,5.5,14.4-3c0,0-0.4,7.7,8.6,8c0,0-4,7.9,1.6,11.4
	c0,0-10.1-4-10.7,5.5c0,0-10.7-6-15-0.7C119.3,65.3,127.3,55.2,113.1,57z"/>
<path class="st4" d="M140,53.5c-6.6,1.3-4.2,7.5-4.2,7.5c-3.3-2.1-5.8-3.2-8.3,1.8c0,0,0.2-4.4-5-4.6c0,0,2.3-4.6-0.9-6.6
	c0,0,5.8,2.3,6.2-3.2c0,0,6.2,3.4,8.7,0.4C136.4,48.7,131.8,54.5,140,53.5z"/>
<path class="st3" d="M108,129c11.4-2.3,7.3-12.9,7.3-12.9c5.7,3.7,10.1,5.5,14.4-3c0,0-0.4,7.7,8.6,8c0,0-4,7.9,1.6,11.4
	c0,0-10.1-4-10.7,5.5c0,0-10.7-6-15-0.7C114.2,137.4,122.2,127.3,108,129z"/>
<path class="st4" d="M135,125.5c-6.6,1.3-4.2,7.5-4.2,7.5c-3.3-2.1-5.8-3.2-8.3,1.8c0,0,0.2-4.4-5-4.6c0,0,2.3-4.6-0.9-6.6
	c0,0,5.8,2.3,6.2-3.2c0,0,6.2,3.4,8.7,0.4C131.4,120.7,126.8,126.6,135,125.5z"/>
<path class="st3" d="M226.5,102.5c11.4-2.3,7.3-12.9,7.3-12.9c5.7,3.7,10.1,5.5,14.4-3c0,0-0.4,7.7,8.6,8c0,0-4,7.9,1.6,11.4
	c0,0-10.1-4-10.7,5.5c0,0-10.7-6-15-0.7C232.7,110.8,240.7,100.7,226.5,102.5z"/>
<path class="st4" d="M253.5,99c-6.6,1.3-4.2,7.5-4.2,7.5c-3.3-2.1-5.8-3.2-8.3,1.8c0,0,0.2-4.4-5-4.6c0,0,2.3-4.6-0.9-6.6
	c0,0,5.8,2.3,6.2-3.2c0,0,6.2,3.4,8.7,0.4C249.9,94.2,245.3,100,253.5,99z"/>
<path class="st5" d="M165.3,283.5c41.7-3.9,29.9-84.4,29.9-84.4h28.3c0,0,5.7,79.6-16.9,84.4H165.3z"/>
<rect x="208.9" y="204.9" class="st6" width="0.9" height="7.7"/>
<rect x="208.9" y="220.1" class="st6" width="0.9" height="7.7"/>
<rect x="208.9" y="236.1" class="st6" width="0.9" height="7.7"/>
<rect x="206.4" y="254.7" transform="matrix(0.9539 0.3002 -0.3002 0.9539 87.1522 -50.1686)" class="st6" width="0.9" height="7.7"/>
<rect x="199.9" y="270.2" transform="matrix(0.732 0.6813 -0.6813 0.732 240.3734 -63.062)" class="st6" width="0.9" height="7.7"/>
<path class="st5" d="M195.1,0c0,0,0,128.8,0,157.5h28.4V0L195.1,0z"/>
<rect x="208.9" y="143.4" class="st6" width="0.9" height="7.7"/>
<rect x="208.9" y="127.1" class="st6" width="0.9" height="7.7"/>
<rect x="208.9" y="110.8" class="st6" width="0.9" height="7.7"/>
<rect x="208.9" y="94.5" class="st6" width="0.9" height="7.7"/>
<rect x="208.9" y="78.2" class="st6" width="0.9" height="7.7"/>
<rect x="208.9" y="61.8" class="st6" width="0.9" height="7.7"/>
<rect x="208.9" y="45.5" class="st6" width="0.9" height="7.7"/>
<rect x="208.9" y="29.2" class="st6" width="0.9" height="7.7"/>
<rect x="208.9" y="12.9" class="st6" width="0.9" height="7.7"/>
<rect x="208.9" y="-3.4" class="st6" width="0.9" height="7.7"/>
</svg>
