<?xml version="1.0" encoding="utf-8"?>
<!-- Generator: Adobe Illustrator 24.0.2, SVG Export Plug-In . SVG Version: 6.00 Build 0)  -->
<svg version="1.1" id="Calque_1" xmlns="http://www.w3.org/2000/svg" xmlns:xlink="http://www.w3.org/1999/xlink" x="0px" y="0px"
	 viewBox="0 0 283.5 283.5" style="enable-background:new 0 0 283.5 283.5;" xml:space="preserve">
<style type="text/css">
	.st0{fill:#998675;}
	.st1{fill:#8E1313;}
	.st2{fill:#F15A24;}
	.st3{fill:#FFFF00;}
</style>
<g>
	<rect x="121.3" y="85.8" class="st0" width="40.9" height="139.4"/>
	<path class="st1" d="M162.2,85.8C162,38.3,152.9,0,141.7,0c-11.2,0-20.3,38.3-20.4,85.8H162.2z"/>
	<path class="st1" d="M162.2,225.3c0,0,29,0.8,29,36.5c0,0,11.9-71.5-29-76.9V225.3z"/>
	<path class="st1" d="M121.3,225.3c0,0-29,0.8-29,36.5c0,0-11.9-71.5,29-76.9V225.3z"/>
	<polygon class="st2" points="157.5,225.3 164.5,248.1 157.5,239.8 158.7,258.7 152.4,246.7 152.9,255.7 149.7,249.6 146.1,271.5 
		143.7,255 141.8,283.5 137.8,253.6 135.8,267.4 134.1,252.9 132.4,256.8 131.6,248.5 125.6,259.2 128.2,241.9 120.6,248.8 
		126.1,225.3 	"/>
	<polygon class="st3" points="153.5,225.3 158.7,236.2 153.5,232.3 154.4,241.3 149.7,235.6 150.1,239.9 147.8,236.9 145.2,247.5 
		143.4,239.5 142,253.2 139,238.9 137.6,245.5 136.3,238.5 135.1,240.4 134.5,236.4 130.1,241.6 132,233.3 126.4,236.6 130.5,225.3 
			"/>
</g>
</svg>
