<?xml version="1.0" encoding="utf-8"?>
<!-- Generator: Adobe Illustrator 24.0.2, SVG Export Plug-In . SVG Version: 6.00 Build 0)  -->
<svg version="1.1" id="Calque_1" xmlns="http://www.w3.org/2000/svg" xmlns:xlink="http://www.w3.org/1999/xlink" x="0px" y="0px"
	 viewBox="0 0 283.5 283.5" style="enable-background:new 0 0 283.5 283.5;" xml:space="preserve">
<style type="text/css">
	.st0{fill:#736357;}
	.st1{fill:#8E1313;}
	.st2{fill:#998675;}
</style>
<rect x="91.3" y="10.8" transform="matrix(-1 -1.224647e-16 1.224647e-16 -1 283.4646 215.9147)" class="st0" width="100.8" height="194.3"/>
<rect x="55" transform="matrix(-1 -1.224647e-16 1.224647e-16 -1 146.324 215.9147)" class="st1" width="36.3" height="215.9"/>
<rect x="192.1" transform="matrix(-1 -1.224647e-16 1.224647e-16 -1 420.6051 215.9147)" class="st1" width="36.3" height="215.9"/>
<rect x="114.2" y="99.8" transform="matrix(-1 -1.224647e-16 1.224647e-16 -1 285.0972 241.8326)" class="st1" width="56.7" height="42.2"/>
<rect x="135.8" y="142" transform="matrix(-1 -1.224647e-16 1.224647e-16 -1 285.0972 410.1971)" class="st2" width="13.5" height="126.1"/>
<rect x="130.7" y="268.2" transform="matrix(-1 -1.224647e-16 1.224647e-16 -1 285.0972 551.6233)" class="st1" width="23.7" height="15.3"/>
<path class="st1" d="M114.2,142c0.3,13.5,12.9,24.4,28.4,24.4s28.1-10.9,28.4-24.4H114.2z"/>
</svg>
